<svg width="1440" height="900" viewBox="0 0 1440 900" fill="none" xmlns="http://www.w3.org/2000/svg">
<g id="animationactivitysvg" clip-path="url(#clip0_2:2)">
<rect width="1440" height="900" fill="white"/>
<rect id="rectangle" x="260.031" y="176.736" width="921" height="561" fill="#FFFBB0"/>
<g id="checker">
<path d="M1044.03 306.736H1135.03V397.736H1044.03V306.736Z" fill="#6FA5F5"/>
<path d="M1135.03 397.736H1226.03V488.736H1135.03V397.736Z" fill="#6FA5F5"/>
<path d="M1044.03 488.736H1135.03V579.736H1044.03V488.736Z" fill="#6FA5F5"/>
<path d="M1135.03 579.736H1226.03V670.736H1135.03V579.736Z" fill="#6FA5F5"/>
<path d="M1226.03 306.736H1317.03V397.736H1226.03V306.736Z" fill="#6FA5F5"/>
<path d="M1044.03 670.736H1135.03V761.736H1044.03V670.736Z" fill="#6FA5F5"/>
<path d="M1226.03 670.736H1317.03V761.736H1226.03V670.736Z" fill="#6FA5F5"/>
<path d="M1226.03 488.736H1317.03V579.736H1226.03V488.736Z" fill="#6FA5F5"/>
</g>
<path id="blob" d="M292.788 479.001C265.736 469.843 259.474 459.345 216.734 466.275C121.557 481.71 108.183 420.978 122.898 382.491C137.614 344.003 109.835 327.351 95.5769 300.64C78.2574 268.194 62.5037 224.527 86.7791 185.076C136.679 103.982 201.63 112.423 217.483 123.248C233.335 134.073 272.335 155.233 310.556 134.831C363.893 106.359 408.422 77.9741 452.533 96.4825C488.234 111.462 518.002 164.869 506.735 198.021C494.488 234.056 455.436 245.825 436.591 269.499C417.746 293.173 440.444 330.976 444.82 360.407C449.197 389.837 425.432 430.84 394.697 455.235C365.864 478.119 326.603 490.448 292.788 479.001Z" fill="#FFBDEC"/>
<circle id="circle" cx="461.766" cy="417.471" r="126.5" transform="rotate(0.549254 461.766 417.471)" stroke="#FF7613" stroke-width="6"/>
<line id="line" x1="1440.03" y1="816.736" x2="832.031" y2="816.736" stroke="#FF7613" stroke-width="6"/>
</g>
<defs>
<clipPath id="clip0_2:2">
<rect width="1440" height="900" fill="white"/>
</clipPath>
</defs>
</svg>
