<svg id="Layer_1" data-name="Layer 1" xmlns="http://www.w3.org/2000/svg" viewBox="0 0 497.78 341.19"><defs><style>.cls-1{fill:#e8c5de;}</style></defs><path class="cls-1" d="M137.71,93.21c-48.17,8.24-69.34-25.36-98.59-7.49-29.46,18-40.83,72.15-21.74,99.1,15.57,22,45.73,17.85,49.84,36.36,3.64,16.37-19,24-22.47,49.9-2.88,21.4,8.07,49.85,27.72,59.08,29.05,13.65,51.81-26.58,101.81-21,30.93,3.42,31.54,19.85,66,22.89,4.16.37,58.85,4.54,79-25.89,17.07-25.83-6.55-52.75,9.53-69.5,17.12-17.83,48.15,8.23,90.73-7.67,3.63-1.36,46.53-18.12,55-57.76,7.49-35.18-15.1-74.61-44-85.81-31.83-12.33-57.88,14.75-79.18-1.73-15.22-11.79-7.05-29.6-23.87-48C307.8,14.33,290.08,2.87,250,10.61,171.72,25.71,201.56,82.3,137.71,93.21Z"/></svg>